# xmcd
# 
# Track frame offsets:
#     150
#     21685
#     43447
#     64550
#     88003
#     109327
#     127710
#     148758
#     171391
#     189448
#     211033
#     234710
#     255296
#     274530
#     293407
#     314480
# 
# Disc length: 4503
# 
# Revision: 2
# Processed by: cddbd v1.5.2PL0 Copyright (c) Steve Scherf et al.
# Submitted via: fre:ac v1.0.27
# 
DISCID=e9119510
DTITLE=Various Artist - 再現蒲公英 - Disk 2
DYEAR=2003
DGENRE=Pop
TTITLE0=張信哲 - 別怕我傷心
TTITLE1=王菲 - 棋子
TTITLE2=張惠妹 - 剪愛
TTITLE3=張學友 - 回頭太難
TTITLE4=鄭秀文 - 依靠
TTITLE5=陳潔儀 - 擔心
TTITLE6=梁詠琪 - 短髮
TTITLE7=許美靜 - 鐵窗
TTITLE8=郭富城 - 當我知道你們相愛
TTITLE9=陳小春 - 沒那種命
TTITLE10=孫耀威 - 我知道你在等我
TTITLE11=趙傳 - 我是一隻小小鳥
TTITLE12=梁詠琪 - 愛的代價
TTITLE13=黎明 - 今夜你會不會來
TTITLE14=許美靜 - 遺憾
TTITLE15=張雨生 - 沒有煙抽的日子
EXTD=
EXTT0=
EXTT1=
EXTT2=
EXTT3=
EXTT4=
EXTT5=
EXTT6=
EXTT7=
EXTT8=
EXTT9=
EXTT10=
EXTT11=
EXTT12=
EXTT13=
EXTT14=
EXTT15=
PLAYORDER=
